<svg width="42" height="43" viewBox="0 0 42 43" fill="none" xmlns="http://www.w3.org/2000/svg">
<g clip-path="url(#clip0_2_22)">
<path d="M21 11.03C15.5 11.03 11 15.53 11 21.03C11 26.03 14.7 30.13 19.4 30.93V23.93H16.9V21.03H19.4V18.83C19.4 16.33 20.9 14.93 23.2 14.93C24.3 14.93 25.4 15.13 25.4 15.13V17.63H24.1C22.9 17.63 22.5 18.43 22.5 19.23V21.03H25.3L24.9 23.93H22.6V30.93C27.3 30.13 31 26.03 31 21.03C31 15.53 26.5 11.03 21 11.03Z" fill="white"/>
</g>
<defs>
<clipPath id="clip0_2_22">
<rect width="24" height="24" fill="white" transform="translate(9 9.03003)"/>
</clipPath>
</defs>
</svg>
