<svg width="38" height="39" viewBox="0 0 38 39" fill="none" xmlns="http://www.w3.org/2000/svg">
<g clip-path="url(#clip0_2_205)">
<path d="M19 12.4223C21.403 12.4223 21.688 12.4313 22.637 12.4743C23.514 12.5143 23.991 12.6613 24.308 12.7843C24.728 12.9473 25.028 13.1423 25.343 13.4573C25.658 13.7723 25.853 14.0723 26.016 14.4923C26.139 14.8093 26.286 15.2863 26.326 16.1633C26.369 17.1123 26.378 17.3973 26.378 19.8003C26.378 22.2033 26.369 22.4883 26.326 23.4373C26.286 24.3143 26.139 24.7913 26.016 25.1083C25.853 25.5283 25.658 25.8283 25.343 26.1433C25.028 26.4583 24.728 26.6533 24.308 26.8163C23.991 26.9393 23.514 27.0863 22.637 27.1263C21.688 27.1693 21.404 27.1783 19 27.1783C16.596 27.1783 16.312 27.1693 15.363 27.1263C14.486 27.0863 14.009 26.9393 13.692 26.8163C13.272 26.6533 12.972 26.4583 12.657 26.1433C12.342 25.8283 12.147 25.5283 11.984 25.1083C11.861 24.7913 11.714 24.3143 11.674 23.4373C11.631 22.4883 11.622 22.2033 11.622 19.8003C11.622 17.3973 11.631 17.1123 11.674 16.1633C11.714 15.2863 11.861 14.8093 11.984 14.4923C12.147 14.0723 12.342 13.7723 12.657 13.4573C12.972 13.1423 13.272 12.9473 13.692 12.7843C14.009 12.6613 14.486 12.5143 15.363 12.4743C16.312 12.4313 16.597 12.4223 19 12.4223ZM19 10.8003C16.556 10.8003 16.249 10.8103 15.289 10.8543C14.331 10.8983 13.677 11.0503 13.105 11.2723C12.513 11.5023 12.011 11.8103 11.511 12.3113C11.011 12.8113 10.703 13.3133 10.473 13.9053C10.25 14.4773 10.098 15.1313 10.054 16.0893C10.01 17.0493 10 17.3563 10 19.8003C10 22.2443 10.01 22.5513 10.054 23.5113C10.098 24.4693 10.25 25.1233 10.472 25.6963C10.702 26.2883 11.01 26.7903 11.51 27.2903C12.01 27.7903 12.512 28.0983 13.104 28.3283C13.676 28.5503 14.331 28.7033 15.289 28.7463C16.249 28.7903 16.556 28.8003 19 28.8003C21.444 28.8003 21.751 28.7903 22.711 28.7463C23.669 28.7023 24.323 28.5503 24.896 28.3283C25.488 28.0983 25.99 27.7903 26.49 27.2903C26.99 26.7903 27.298 26.2883 27.528 25.6963C27.75 25.1243 27.903 24.4693 27.946 23.5113C27.99 22.5513 28 22.2443 28 19.8003C28 17.3563 27.99 17.0493 27.946 16.0893C27.902 15.1313 27.75 14.4773 27.528 13.9043C27.298 13.3123 26.99 12.8103 26.49 12.3103C25.99 11.8103 25.488 11.5023 24.896 11.2723C24.324 11.0503 23.669 10.8973 22.711 10.8543C21.751 10.8103 21.444 10.8003 19 10.8003ZM19 15.1783C16.448 15.1783 14.378 17.2473 14.378 19.8003C14.378 22.3533 16.448 24.4223 19 24.4223C21.552 24.4223 23.622 22.3533 23.622 19.8003C23.622 17.2473 21.552 15.1783 19 15.1783ZM19 22.8003C17.343 22.8003 16 21.4573 16 19.8003C16 18.1433 17.343 16.8003 19 16.8003C20.657 16.8003 22 18.1433 22 19.8003C22 21.4573 20.657 22.8003 19 22.8003ZM23.804 13.9163C23.208 13.9163 22.724 14.4003 22.724 14.9963C22.724 15.5923 23.208 16.0763 23.804 16.0763C24.4 16.0763 24.884 15.5923 24.884 14.9963C24.884 14.4003 24.401 13.9163 23.804 13.9163Z" fill="white"/>
</g>
<defs>
<clipPath id="clip0_2_205">
<rect width="24" height="24" fill="white" transform="translate(7 7.80029)"/>
</clipPath>
</defs>
</svg>
