<svg width="42" height="43" viewBox="0 0 42 43" fill="none" xmlns="http://www.w3.org/2000/svg">
<g clip-path="url(#clip0_2_30)">
<path d="M31.23 14.954C30.494 15.28 29.703 15.501 28.873 15.6C29.72 15.092 30.371 14.288 30.677 13.33C29.884 13.8 29.006 14.142 28.071 14.326C27.324 13.528 26.257 13.03 25.077 13.03C22.811 13.03 20.974 14.867 20.974 17.133C20.974 17.455 21.01 17.768 21.08 18.068C17.67 17.897 14.647 16.264 12.623 13.781C12.27 14.387 12.067 15.092 12.067 15.844C12.067 17.268 12.791 18.523 13.892 19.259C13.219 19.238 12.587 19.053 12.033 18.746C12.033 18.763 12.033 18.78 12.033 18.798C12.033 20.786 13.447 22.445 15.325 22.821C14.981 22.915 14.618 22.965 14.244 22.965C13.98 22.965 13.723 22.939 13.472 22.891C13.994 24.521 15.51 25.707 17.305 25.741C15.901 26.841 14.131 27.497 12.209 27.497C11.878 27.497 11.551 27.478 11.23 27.44C13.046 28.604 15.203 29.283 17.52 29.283C25.067 29.283 29.195 23.031 29.195 17.608C29.195 17.43 29.191 17.253 29.183 17.077C29.985 16.5 30.68 15.777 31.23 14.954Z" fill="white"/>
</g>
<g clip-path="url(#clip1_2_30)">
<path d="M19.144 11.802V13.578H14.584V28.53H12.4V13.578H7.816V11.802H19.144ZM39.3524 15.378L35.2484 28.53H32.9924L29.8244 18.09L26.6564 28.53H24.4004L20.2724 15.378H22.5044L25.5284 26.418L28.7924 15.378H31.0244L34.2164 26.442L37.1924 15.378H39.3524ZM42.6479 13.242C42.2319 13.242 41.8799 13.098 41.5919 12.81C41.3039 12.522 41.1599 12.17 41.1599 11.754C41.1599 11.338 41.3039 10.986 41.5919 10.698C41.8799 10.41 42.2319 10.266 42.6479 10.266C43.0479 10.266 43.3839 10.41 43.6559 10.698C43.9439 10.986 44.0879 11.338 44.0879 11.754C44.0879 12.17 43.9439 12.522 43.6559 12.81C43.3839 13.098 43.0479 13.242 42.6479 13.242ZM43.7039 15.378V28.53H41.5199V15.378H43.7039ZM50.0901 17.178V24.93C50.0901 25.57 50.2261 26.026 50.4981 26.298C50.7701 26.554 51.2421 26.682 51.9141 26.682H53.5221V28.53H51.5541C50.3381 28.53 49.4261 28.25 48.8181 27.69C48.2101 27.13 47.9061 26.21 47.9061 24.93V17.178H46.2021V15.378H47.9061V12.066H50.0901V15.378H53.5221V17.178H50.0901ZM58.8323 17.178V24.93C58.8323 25.57 58.9683 26.026 59.2403 26.298C59.5123 26.554 59.9843 26.682 60.6563 26.682H62.2643V28.53H60.2963C59.0803 28.53 58.1683 28.25 57.5603 27.69C56.9523 27.13 56.6483 26.21 56.6483 24.93V17.178H54.9443V15.378H56.6483V12.066H58.8323V15.378H62.2643V17.178H58.8323ZM76.9105 21.45C76.9105 21.866 76.8865 22.306 76.8385 22.77H66.3265C66.4065 24.066 66.8465 25.082 67.6465 25.818C68.4625 26.538 69.4465 26.898 70.5985 26.898C71.5425 26.898 72.3265 26.682 72.9505 26.25C73.5905 25.802 74.0385 25.21 74.2945 24.474H76.6465C76.2945 25.738 75.5905 26.77 74.5345 27.57C73.4785 28.354 72.1665 28.746 70.5985 28.746C69.3505 28.746 68.2305 28.466 67.2385 27.906C66.2625 27.346 65.4945 26.554 64.9345 25.53C64.3745 24.49 64.0945 23.29 64.0945 21.93C64.0945 20.57 64.3665 19.378 64.9105 18.354C65.4545 17.33 66.2145 16.546 67.1905 16.002C68.1825 15.442 69.3185 15.162 70.5985 15.162C71.8465 15.162 72.9505 15.434 73.9105 15.978C74.8705 16.522 75.6065 17.274 76.1185 18.234C76.6465 19.178 76.9105 20.25 76.9105 21.45ZM74.6545 20.994C74.6545 20.162 74.4705 19.45 74.1025 18.858C73.7345 18.25 73.2305 17.794 72.5905 17.49C71.9665 17.17 71.2705 17.01 70.5025 17.01C69.3985 17.01 68.4545 17.362 67.6705 18.066C66.9025 18.77 66.4625 19.746 66.3505 20.994H74.6545ZM81.9773 17.514C82.3613 16.762 82.9053 16.178 83.6093 15.762C84.3293 15.346 85.2013 15.138 86.2253 15.138V17.394H85.6493C83.2013 17.394 81.9773 18.722 81.9773 21.378V28.53H79.7933V15.378H81.9773V17.514Z" fill="white"/>
</g>
<defs>
<clipPath id="clip0_2_30">
<rect width="24" height="24" fill="white" transform="translate(9 9.03003)"/>
</clipPath>
<clipPath id="clip1_2_30">
<rect width="1" height="1" fill="white" transform="translate(7 20.53)"/>
</clipPath>
</defs>
</svg>
