<svg width="24" height="25" viewBox="0 0 24 25" fill="none" xmlns="http://www.w3.org/2000/svg">
<g clip-path="url(#clip0_2_199)">
<path d="M21.8 8.80109C21.8 8.80109 21.605 7.42309 21.005 6.81609C20.245 6.01909 19.392 6.01509 19.001 5.96909C16.202 5.76709 12.004 5.76709 12.004 5.76709H11.995C11.995 5.76709 7.797 5.76709 4.998 5.96909C4.608 6.01609 3.756 6.02009 2.995 6.81609C2.395 7.42309 2.2 8.80109 2.2 8.80109C2.2 8.80109 2 10.4201 2 12.0381V13.5551C2 15.1731 2.2 16.7921 2.2 16.7921C2.2 16.7921 2.395 18.1701 2.995 18.7771C3.756 19.5741 4.755 19.5481 5.2 19.6321C6.8 19.7851 12 19.8331 12 19.8331C12 19.8331 16.203 19.8271 19.001 19.6241C19.392 19.5771 20.244 19.5731 21.005 18.7771C21.605 18.1701 21.8 16.7921 21.8 16.7921C21.8 16.7921 22 15.1741 22 13.5551V12.0381C22 10.4201 21.8 8.80109 21.8 8.80109ZM9.935 15.3941L9.934 9.77409L15.338 12.5941L9.935 15.3941Z" fill="white"/>
</g>
<defs>
<clipPath id="clip0_2_199">
<rect width="24" height="24" fill="white" transform="translate(0 0.800293)"/>
</clipPath>
</defs>
</svg>
