<svg width="24" height="25" viewBox="0 0 24 25" fill="none" xmlns="http://www.w3.org/2000/svg">
<g clip-path="url(#clip0_2_37)">
<path d="M19.7 3.03003H4.3C3.582 3.03003 3 3.61203 3 4.33003V19.73C3 20.448 3.582 21.03 4.3 21.03H19.7C20.418 21.03 21 20.448 21 19.73V4.33003C21 3.61203 20.418 3.03003 19.7 3.03003ZM8.339 18.368H5.667V9.77803H8.339V18.368ZM7.004 8.60403C6.147 8.60403 5.455 7.91003 5.455 7.05603C5.455 6.20103 6.146 5.50803 7.004 5.50803C7.858 5.50803 8.551 6.20203 8.551 7.05603C8.551 7.91103 7.858 8.60403 7.004 8.60403ZM18.339 18.368H15.67V14.191C15.67 13.195 15.653 11.913 14.283 11.913C12.894 11.913 12.682 12.999 12.682 14.119V18.368H10.015V9.77803H12.574V10.952H12.611C12.967 10.277 13.838 9.56503 15.137 9.56503C17.84 9.56503 18.34 11.344 18.34 13.657L18.339 18.368Z" fill="white"/>
</g>
<defs>
<clipPath id="clip0_2_37">
<rect width="24" height="24" fill="white" transform="translate(0 0.0300293)"/>
</clipPath>
</defs>
</svg>
